<?xml version="1.0" standalone="no"?>
<!DOCTYPE svg PUBLIC "-//W3C//DTD SVG 20010904//EN"
 "http://www.w3.org/TR/2001/REC-SVG-20010904/DTD/svg10.dtd">
<svg version="1.0" xmlns="http://www.w3.org/2000/svg"
 width="400.000000pt" height="400.000000pt" viewBox="0 0 400.000000 400.000000"
 preserveAspectRatio="xMidYMid meet">
<metadata>
Created by potrace 1.14, written by Peter Selinger 2001-2017
</metadata>
<g transform="translate(0.000000,400.000000) scale(0.100000,-0.100000)"
fill="#000000" stroke="none">
<path d="M1790 3994 c-14 -2 -59 -9 -100 -15 -255 -36 -569 -157 -791 -305
-456 -304 -749 -741 -866 -1290 -25 -120 -27 -146 -28 -374 0 -262 5 -313 55
-506 129 -502 445 -935 882 -1206 199 -123 423 -211 674 -265 120 -25 146 -27
374 -28 161 0 271 5 320 13 854 151 1483 759 1658 1602 24 114 26 147 26 370
1 262 -4 313 -54 506 -193 752 -785 1312 -1555 1471 -102 21 -154 25 -345 28
-124 2 -236 2 -250 -1z m93 -671 c32 -10 69 -35 111 -73 l62 -59 55 27 c46 23
67 27 139 27 74 0 92 -4 143 -29 64 -33 124 -92 159 -158 l23 -43 3 -527 c1
-291 5 -528 7 -528 2 0 43 13 92 29 189 63 340 68 456 14 81 -39 160 -111 195
-178 49 -96 29 -231 -47 -318 -18 -19 -100 -76 -184 -127 -203 -121 -312 -203
-432 -324 -113 -114 -162 -194 -172 -278 -8 -69 -25 -102 -62 -118 -35 -14
-69 -8 -102 19 -21 17 -24 27 -23 88 4 207 202 451 559 687 61 40 146 93 189
117 83 46 116 84 116 132 0 63 -59 125 -139 147 -91 24 -293 -22 -439 -101
-89 -47 -123 -50 -163 -10 l-29 29 0 589 c0 656 2 633 -69 680 -71 48 -175 20
-213 -57 -16 -32 -18 -74 -18 -428 l0 -394 -29 -29 c-18 -17 -40 -29 -56 -29
-33 0 -81 24 -89 45 -3 9 -6 209 -6 443 0 249 -4 442 -10 462 -34 122 -197
146 -267 41 l-23 -34 0 -488 c0 -357 -3 -495 -12 -514 -12 -27 -55 -55 -83
-55 -27 0 -72 31 -84 57 -7 16 -11 141 -11 366 0 324 -1 344 -20 375 -58 96
-183 95 -254 -1 -21 -28 -21 -34 -21 -750 l0 -722 27 -81 c66 -193 215 -336
408 -390 37 -10 123 -17 268 -21 209 -6 212 -6 237 -31 36 -35 34 -85 -4 -123
l-29 -29 -197 0 c-214 0 -299 12 -413 57 -165 66 -320 209 -397 367 -84 170
-80 123 -80 976 l0 755 28 57 c36 74 120 151 189 174 62 21 157 23 212 5 42
-15 56 -6 56 34 0 36 57 139 96 177 96 91 213 115 347 71z"/>
</g>
</svg>
